# xmcd
#
# Track frame offsets:
#	150
#	16693
#	37500
#	56499
#	77246
#	89049
#	108054
#	137982
#	163636
#	185280
#
# Disc length: 2847 seconds
#
# Revision: 1
# Processed by: cddbd v1.5.2PL0 Copyright (c) Steve Scherf et al.
# Submitted via: audiograbber 1.83.01
#
DISCID=700b1d0a
DTITLE=Frank Doesburg - Forget about Venus
DYEAR=2012
DGENRE=Pop
TTITLE0=Frank Doesburg - Rejected everywhere
TTITLE1=Frank Doesburg - Forget about Venus
TTITLE2=Frank Doesburg - Little miss sunshine
TTITLE3=Frank Doesburg - Sunday
TTITLE4=Frank Doesburg - Scattered
TTITLE5=Frank Doesburg - Worlds end
TTITLE6=Frank Doesburg - Purity and Honesty
TTITLE7=Frank Doesburg - Atlas
TTITLE8=Frank Doesburg - Not to be trused
TTITLE9=Frank Doesburg - September
EXTD=
EXTT0=
EXTT1=
EXTT2=
EXTT3=
EXTT4=
EXTT5=
EXTT6=
EXTT7=
EXTT8=
EXTT9=
PLAYORDER=
